<svg width="96" height="96" xmlns="http://www.w3.org/2000/svg" xmlns:xlink="http://www.w3.org/1999/xlink" xml:space="preserve" overflow="hidden"><defs><clipPath id="clip0"><rect x="490" y="183" width="96" height="96"/></clipPath></defs><g clip-path="url(#clip0)" transform="translate(-490 -183)"><path d="M535.61 251.14C535.61 253.647 533.577 255.68 531.07 255.68 528.563 255.68 526.53 253.647 526.53 251.14 526.53 248.633 528.563 246.6 531.07 246.6 533.577 246.6 535.61 248.633 535.61 251.14Z" fill="#FFFFFF"/><path d="M540 266 540 261.46C539.985 260.753 539.655 260.089 539.1 259.65 537.795 258.644 536.303 257.91 534.71 257.49 533.508 257.121 532.258 256.932 531 256.93 529.744 256.949 528.496 257.138 527.29 257.49 525.715 257.956 524.23 258.687 522.9 259.65 522.345 260.089 522.015 260.753 522 261.46L522 266Z" fill="#FFFFFF"/><path d="M555.47 251.14C555.47 253.647 553.437 255.68 550.93 255.68 548.423 255.68 546.39 253.647 546.39 251.14 546.39 248.633 548.423 246.6 550.93 246.6 553.437 246.6 555.47 248.633 555.47 251.14Z" fill="#FFFFFF"/><path d="M560 266 560 261.46C559.985 260.753 559.655 260.089 559.1 259.65 557.795 258.644 556.303 257.91 554.71 257.49 553.508 257.121 552.258 256.932 551 256.93 549.744 256.949 548.496 257.138 547.29 257.49 545.715 257.956 544.23 258.687 542.9 259.65 542.345 260.089 542.015 260.753 542 261.46L542 266Z" fill="#FFFFFF"/><path d="M575.47 251.14C575.47 253.647 573.437 255.68 570.93 255.68 568.423 255.68 566.39 253.647 566.39 251.14 566.39 248.633 568.423 246.6 570.93 246.6 573.437 246.6 575.47 248.633 575.47 251.14Z" fill="#FFFFFF"/><path d="M580 266 580 261.46C579.985 260.753 579.655 260.089 579.1 259.65 577.795 258.644 576.303 257.91 574.71 257.49 573.508 257.121 572.258 256.932 571 256.93 569.744 256.949 568.496 257.138 567.29 257.49 565.715 257.956 564.23 258.687 562.9 259.65 562.345 260.089 562.015 260.753 562 261.46L562 266Z" fill="#FFFFFF"/><path d="M517.42 209.16C517.42 212.441 514.761 215.1 511.48 215.1 508.199 215.1 505.54 212.441 505.54 209.16 505.54 205.879 508.199 203.22 511.48 203.22 514.761 203.22 517.42 205.879 517.42 209.16Z" fill="#FFFFFF"/><path d="M546.51 206.87C545.922 206.29 544.978 206.29 544.39 206.87L531.47 219.79C530.438 219.499 529.328 219.781 528.56 220.53 528.35 220.74 524.62 226.84 524.62 226.84L523.5 222.07C523.352 221.455 523.045 220.889 522.61 220.43 520.767 218.94 518.646 217.832 516.37 217.17 514.761 216.826 513.125 216.628 511.48 216.58 509.821 216.606 508.173 216.854 506.58 217.32 504.284 217.922 502.154 219.037 500.35 220.58 499.911 221.037 499.604 221.603 499.46 222.22 499.46 222.22 495.15 240.32 495.15 240.62 495.15 242.277 496.493 243.62 498.15 243.62 499.478 243.586 500.625 242.683 500.97 241.4L504.09 228.49 504.09 270 510 270 510 243.29 513 243.29 513 270 518.9 270 518.9 228.3 520 233C520.076 233.325 520.292 233.599 520.59 233.75 521.74 234.633 523.141 235.126 524.59 235.16 525.534 235.292 526.469 234.867 526.99 234.07L533.09 224.07C533.48 223.455 533.626 222.717 533.5 222L546.5 209C547.089 208.414 547.093 207.462 546.51 206.87Z" fill="#FFFFFF"/><path d="M567 193 518 193C515.791 193 514 194.791 514 197L514 200.6C515.529 201.016 516.913 201.847 518 203L518 197 567 197 567 230 532.87 230 530.43 234 567 234C569.209 234 571 232.209 571 230L571 197C571 194.791 569.209 193 567 193Z" fill="#FFFFFF"/></g></svg>