<svg width="96" height="96" xmlns="http://www.w3.org/2000/svg" xmlns:xlink="http://www.w3.org/1999/xlink" xml:space="preserve" overflow="hidden"><defs><clipPath id="clip0"><rect x="620" y="182" width="96" height="96"/></clipPath></defs><g clip-path="url(#clip0)" transform="translate(-620 -182)"><path d="M694 233.95 704.1 223.85 710 229.75 710 213.75 694 213.75 699.9 219.65 690 229.55 673 246.55 658 231.55 626.9 262.65 631.1 266.85 658 239.95 673 254.95 694 233.95Z" fill="#FFFFFF"/><path d="M643 202C643 204.761 640.761 207 638 207 635.239 207 633 204.761 633 202 633 199.239 635.239 197 638 197 640.761 197 643 199.239 643 202Z" fill="#FFFFFF"/><path d="M686.17 227.71 687.17 226.71 689.46 224.42 686.68 211.92C686.595 211.477 686.354 211.08 686 210.8 684.802 209.86 683.448 209.139 682 208.67 679.388 207.777 676.552 207.777 673.94 208.67 672.492 209.14 671.138 209.861 669.94 210.8 669.594 211.086 669.354 211.481 669.26 211.92L668 217.78 668 217.78 666.69 211.92C666.598 211.477 666.354 211.081 666 210.8 664.802 209.86 663.448 209.139 662 208.67 657.894 207.345 653.399 208.143 650 210.8 649.654 211.086 649.414 211.481 649.32 211.92L648 217.59C648 217.59 648 217.59 648 217.59L646.7 211.92C646.6 211.478 646.353 211.083 646 210.8 644.802 209.861 643.448 209.14 642 208.67 639.388 207.777 636.552 207.777 633.94 208.67 632.493 209.142 631.14 209.863 629.94 210.8 629.594 211.086 629.354 211.481 629.26 211.92L626.08 226.44C625.795 227.559 626.471 228.696 627.589 228.981 627.616 228.988 627.643 228.994 627.67 229 627.78 229.01 627.89 229.01 628 229 628.956 229.022 629.795 228.364 630 227.43L633 214 633 214 633 221.1 630 236 633 236 633 250.89 637 246.89 637 236 639 236 639 244.89 643 240.89 643 236 646 236 643 221.11 643 214.11 643 214.11 646 227.17C646.089 228.208 646.959 229.004 648 229L648 229C648.934 228.994 649.739 228.342 649.94 227.43L650 227 652.92 214.17C652.92 214.17 652.92 214.17 652.92 214.17L652.92 230.94 655.13 228.72C656.691 227.157 659.224 227.156 660.787 228.717 660.788 228.718 660.789 228.719 660.79 228.72L663 230.85 663 214.18C663 214.18 663 214.18 663 214.18L666 227.44C666.209 228.37 667.047 229.023 668 229L668 229C668.938 228.999 669.748 228.346 669.95 227.43L672.95 214.17C672.95 214.17 672.95 214.17 672.95 214.17L672.95 240.87 672.95 240.87 676.95 236.87 676.95 230 678.95 230 678.95 234.91 682.95 230.91 682.95 214.18C682.95 214.18 682.95 214.18 682.95 214.18L686.1 227.72Z" fill="#FFFFFF"/><path d="M682.99 202C682.99 204.761 680.751 207 677.99 207 675.229 207 672.99 204.761 672.99 202 672.99 199.239 675.229 197 677.99 197 680.751 197 682.99 199.239 682.99 202Z" fill="#FFFFFF"/><path d="M662.96 202C662.96 204.761 660.721 207 657.96 207 655.199 207 652.96 204.761 652.96 202 652.96 199.239 655.199 197 657.96 197 660.721 197 662.96 199.239 662.96 202Z" fill="#FFFFFF"/></g></svg>