<svg width="96" height="96" xmlns="http://www.w3.org/2000/svg" xmlns:xlink="http://www.w3.org/1999/xlink" xml:space="preserve" overflow="hidden"><defs><clipPath id="clip0"><rect x="731" y="195" width="96" height="96"/></clipPath></defs><g clip-path="url(#clip0)" transform="translate(-731 -195)"><path d="M793.8 256.3C794.3 255.3 794 254.1 793 253.6 792 253.1 790.8 253.4 790.3 254.4L786.3 261.5 789 250.8C789.3 249.7 788.6 248.6 787.5 248.4 786.4 248.1 785.3 248.8 785.1 249.9L782.8 259.1 782.8 249.1C782.8 248 781.9 247.1 780.8 247.1 779.7 247.1 778.8 248 778.8 249.1L778.8 259.8 776.5 249.9C776.3 248.8 775.2 248.2 774.1 248.4 773 248.6 772.4 249.7 772.6 250.8L775.4 262.7C775.3 264.1 775 265.5 774.7 266.7 774.7 266.7 774.7 266.6 774.6 266.6 772.9 264 770.2 261.7 767.6 261 766.6 260.7 765.6 261.3 765.3 262.3 765 263.3 765.6 264.3 766.6 264.6 767.9 264.9 769.1 266.8 770.4 268.8 772 271.3 774 274.2 777 275.9L777 286.6 785.8 286.6 785.8 275.3C789.1 273.6 789.5 266.5 789.6 263.8L793.8 256.3Z" fill="#FFFFFF"/><path d="M758.5 257.1 767.2 257.2C767.2 257.2 767.2 257.2 767.2 257.2 768.3 257.2 769.2 256.3 769.2 255.2 769.2 254.1 768.3 253.2 767.2 253.2L759.1 253.1 769.7 250.4C770.8 250.1 771.4 249 771.1 248 770.8 246.9 769.7 246.3 768.7 246.6L759.5 249 768.3 244.2C769.3 243.7 769.6 242.5 769.1 241.5 768.6 240.5 767.4 240.2 766.4 240.7L757 245.7 764.6 239C765.4 238.3 765.5 237 764.8 236.2 764.1 235.4 762.8 235.3 762 236L752.8 244C751.5 244.6 750.2 245 748.9 245.2 748.9 245.2 748.9 245.1 749 245.1 750.5 242.3 751.2 238.9 750.6 236.3 750.4 235.3 749.3 234.7 748.3 234.9 747.3 235.1 746.7 236.2 746.9 237.2 747.2 238.5 746.2 240.4 745.1 242.5 743.7 245.1 742.1 248.2 742 251.7L732.6 256.8 736.8 264.5 746.7 259.2C749.7 261.3 756.1 258.3 758.5 257.1Z" fill="#FFFFFF"/><path d="M759.6 224.5 761.7 232.9C761.9 233.8 762.7 234.4 763.6 234.4 763.8 234.4 763.9 234.4 764.1 234.3 765.2 234 765.8 233 765.6 231.9L763.7 224 769 233.5C769.4 234.2 770 234.5 770.8 234.5 771.1 234.5 771.5 234.4 771.8 234.2 772.8 233.7 773.1 232.4 772.6 231.5L768 223.2 774.8 230.5C775.2 230.9 775.7 231.1 776.3 231.1 776.8 231.1 777.3 230.9 777.7 230.6 778.5 229.8 778.5 228.6 777.8 227.8L770.5 220 779 225.7C779.3 225.9 779.7 226 780.1 226 780.7 226 781.4 225.7 781.8 225.1 782.4 224.2 782.2 222.9 781.3 222.3L771.1 215.5C770.2 214.4 769.5 213.2 768.9 212.1 768.9 212.1 769 212.1 769 212.1 772 212.8 775.5 212.7 777.9 211.4 778.8 210.9 779.1 209.8 778.6 208.9 778.1 208 777 207.7 776.1 208.2 775 208.8 772.8 208.3 770.5 207.8 767.6 207.1 764.2 206.3 760.8 207.2L753.5 199.4 747.1 205.4 754.8 213.6C753.2 217.1 757.7 222.6 759.6 224.5Z" fill="#FFFFFF"/><path d="M825.4 263.8 817.8 255.5C819.1 252 814.6 246.5 812.8 244.5L810.8 236.1C810.5 235 809.5 234.4 808.4 234.6 807.3 234.9 806.7 235.9 806.9 237L808.8 244.9 803.5 235.3C803 234.3 801.8 234 800.8 234.5 799.8 235 799.5 236.2 800 237.2L804.6 245.6 797.8 238.3C797 237.5 795.8 237.4 795 238.2 794.2 239 794.1 240.2 794.9 241L802.2 248.9 793.8 243.2C792.9 242.6 791.6 242.8 791 243.7 790.4 244.6 790.6 245.9 791.5 246.5L801.6 253.4C802.5 254.5 803.2 255.7 803.8 256.8 803.8 256.8 803.7 256.8 803.7 256.8 800.7 256.1 797.2 256.2 794.8 257.5 793.9 258 793.5 259.1 794 260 794.5 260.9 795.6 261.3 796.5 260.8 797.6 260.2 799.8 260.7 802.1 261.3 805 262 808.4 262.8 811.8 262L819 269.8 825.4 263.8Z" fill="#FFFFFF"/><path d="M784.3 221C784.5 221 784.7 221 785 220.9L792.6 218.2 783.6 224.4C782.7 225 782.5 226.3 783.1 227.2 783.5 227.8 784.1 228.1 784.7 228.1 785.1 228.1 785.5 228 785.8 227.7L793.6 222.3 787 229.8C786.3 230.6 786.4 231.9 787.2 232.6 787.6 232.9 788 233.1 788.5 233.1 789.1 233.1 789.6 232.9 790 232.4L797.1 224.3 792.3 233.3C791.8 234.3 792.1 235.5 793.1 236 793.4 236.2 793.7 236.2 794 236.2 794.7 236.2 795.4 235.8 795.8 235.1L801.6 224.3C802.6 223.3 803.7 222.5 804.8 221.8 804.8 221.8 804.8 221.9 804.8 221.9 804.4 225 804.9 228.5 806.4 230.7 807 231.6 808.1 231.8 809 231.2 809.9 230.6 810.1 229.5 809.5 228.6 808.8 227.5 809.1 225.3 809.4 222.9 809.8 220 810.2 216.5 809.1 213.2L816.1 205.2 809.5 199.4 802.1 207.9C798.5 207 793.5 212.1 791.7 214L783.5 216.9C782.5 217.3 781.9 218.4 782.3 219.5 782.7 220.5 783.5 221 784.3 221Z" fill="#FFFFFF"/></g></svg>