<svg width="96" height="96" xmlns="http://www.w3.org/2000/svg" xmlns:xlink="http://www.w3.org/1999/xlink" xml:space="preserve" overflow="hidden"><defs><clipPath id="clip0"><rect x="355" y="183" width="96" height="96"/></clipPath></defs><g clip-path="url(#clip0)" transform="translate(-355 -183)"><path d="M410 209.9C410 213.8 406.9 216.9 403 216.9 399.1 216.9 396 213.8 396 209.9 396 206 399.1 202.9 403 202.9 406.9 202.9 410 206.1 410 209.9" fill="#FFFFFF"/><path d="M438 213.9C438 217.8 434.9 220.9 431 220.9 427.1 220.9 424 217.8 424 213.9 424 210 427.1 206.9 431 206.9 434.9 206.9 438 210 438 213.9" fill="#FFFFFF"/><path d="M382 213.9C382 217.8 378.9 220.9 375 220.9 371.1 220.9 368 217.8 368 213.9 368 210 371.1 206.9 375 206.9 378.9 206.9 382 210 382 213.9" fill="#FFFFFF"/><path d="M363.6 259.1C363.6 244.5 381.2 232.7 403 232.7 424.7 232.7 442.4 244.5 442.4 259.1L363.6 259.1Z" fill="#FFFFFF"/><path d="M372.6 236.4C376.8 233.6 381.7 231.4 387 230L387 228.9C387 227.8 386.5 226.7 385.8 226 385.5 225.7 384.8 225.3 383.9 224.9 378.4 222.3 371.9 222.3 366.3 224.8 365.3 225.2 364.5 225.7 364.1 226 363.5 226.7 363 227.8 363 228.9L363 245.9C365.3 242.4 368.5 239.1 372.6 236.4" fill="#FFFFFF"/><path d="M415 229 415 224.9C415 223.8 414.5 222.7 413.8 222 413.5 221.7 412.8 221.3 411.9 220.9 406.4 218.3 399.9 218.3 394.3 220.8 393.3 221.2 392.5 221.7 392.1 222 391.3 222.7 390.9 223.8 390.9 224.9L390.9 229C394.8 228.2 398.8 227.8 402.9 227.8 407 227.8 411.1 228.3 415 229" fill="#FFFFFF"/><path d="M443 245.9 443 228.9C443 227.8 442.5 226.7 441.8 226 441.5 225.7 440.8 225.3 439.9 224.9 434.4 222.3 427.9 222.3 422.3 224.8 421.3 225.2 420.5 225.7 420.1 226 419.3 226.7 418.9 227.8 418.9 228.9L418.9 230C424.2 231.4 429.1 233.6 433.3 236.4 437.5 239.1 440.7 242.4 443 245.9" fill="#FFFFFF"/></g></svg>