<svg width="96" height="96" xmlns="http://www.w3.org/2000/svg" xmlns:xlink="http://www.w3.org/1999/xlink" xml:space="preserve" overflow="hidden"><defs><clipPath id="clip0"><rect x="814" y="520" width="96" height="96"/></clipPath></defs><g clip-path="url(#clip0)" transform="translate(-814 -520)"><path d="M856.772 540.951 856.772 540.951C851.401 540.982 847.036 545.293 846.937 550.663L846.937 551.032C846.98 552.21 847.216 553.373 847.637 554.475 848.027 555.466 848.59 556.38 849.299 557.175 850.426 558.534 851.391 560.019 852.176 561.601L861.363 561.601C862.148 560.02 863.113 558.534 864.24 557.175 864.949 556.38 865.512 555.466 865.903 554.475 866.323 553.373 866.56 552.21 866.603 551.032L866.603 550.663C866.501 545.296 862.14 540.987 856.772 540.951Z"/><path d="M895.005 569.3 888.105 557.3 888.105 556.8C888.711 540.204 875.748 526.259 859.151 525.653 842.555 525.048 828.611 538.011 828.005 554.607 827.978 555.338 827.978 556.069 828.005 556.8 827.966 566.262 832.326 575.204 839.805 581L839.805 606.3 871.405 606.3 871.405 594.3 876.305 594.3C882.822 594.301 888.106 589.019 888.107 582.502 888.107 582.435 888.106 582.367 888.105 582.3L888.105 576.3 892.505 576.3C895.105 576 897.405 573 895.005 569.3ZM856.772 574.558C855.097 574.56 853.703 573.273 853.572 571.603L859.965 571.603C859.834 573.27 858.444 574.556 856.772 574.558ZM861.178 569.558 852.366 569.558C851.551 569.537 850.908 568.859 850.929 568.044 850.949 567.259 851.581 566.627 852.366 566.607L861.178 566.607C861.993 566.628 862.636 567.306 862.615 568.121 862.595 568.906 861.963 569.538 861.178 569.558ZM869.558 551.084C869.511 552.599 869.21 554.095 868.668 555.51 868.15 556.846 867.397 558.079 866.445 559.15 865.261 560.649 864.256 562.281 863.451 564.013 863.285 564.347 862.943 564.559 862.57 564.559L850.97 564.559C850.597 564.559 850.256 564.347 850.09 564.013 849.283 562.281 848.276 560.649 847.09 559.15 846.138 558.079 845.385 556.846 844.867 555.51 844.326 554.095 844.025 552.599 843.977 551.084L843.977 550.642C844.103 543.654 849.782 538.043 856.771 538L856.771 538C863.756 538.046 869.431 543.654 869.558 550.639Z"/></g></svg>