<svg width="96" height="96" xmlns="http://www.w3.org/2000/svg" xmlns:xlink="http://www.w3.org/1999/xlink" xml:space="preserve" overflow="hidden"><defs><clipPath id="clip0"><rect x="297" y="524" width="96" height="96"/></clipPath></defs><g clip-path="url(#clip0)" transform="translate(-297 -524)"><path d="M356.7 564.8 347.8 564.8C344 564.8 340.9 567.8 340.9 571.6L340.9 579 336.4 579 336.4 573.1C336.4 571 336.5 568.3 335 566.6 334.1 565.6 333.1 564.8 332 564 331.2 563.5 330.4 562.9 329.8 562.1 329.5 561.7 329.3 561.2 329.1 560.7 330.3 560.2 331.6 560.1 332.8 560.2 333.4 560.2 333.9 559.8 333.9 559.2 334 558.6 333.6 558.1 333.1 557.9 331.6 557.7 330 557.9 328.5 558.4 328.5 558.2 328.5 558 328.4 557.9 328.3 557 328.5 556.1 328.7 555.2 329.5 553.1 331.5 552.2 333.4 551.5 333.7 551.4 334.1 551.3 334.6 551.2L334.9 551.1 335 551.1C335.5 551.2 335.9 551.3 336.3 551.4L336.8 551.5 337.4 551.6C338.4 552.8 338.9 554.3 338.8 555.8 338.7 557.3 338 558.7 336.8 559.7 336.4 560.1 336.3 560.8 336.7 561.3 337.1 561.7 337.7 561.8 338.2 561.4 338.9 560.8 339.5 560.1 339.9 559.3L340 559.3C341.7 559.1 343.4 558.6 344.9 557.8 345.1 557.6 345.3 557.4 345.4 557.1 345.5 556.8 345.4 556.5 345.2 556.3 344.8 555.8 344.2 555.7 343.7 556 342.8 556.5 341.9 556.9 340.8 557 340.9 556.7 341 556.3 341 556 341.1 554.7 340.9 553.4 340.4 552.3 341.2 552.4 342 552.5 342.8 552.5 343.5 552.5 344.2 552.4 344.9 552.3 346.2 553.9 347.9 555 349.9 555.5 352.5 556.8 354.9 558.5 354.9 561.3 354.9 561.7 355.1 562.2 355.4 562.4 355.8 562.6 356.2 562.6 356.6 562.4 357 562.2 357.2 561.7 357.1 561.3 357.1 559.1 356.1 557.1 354.4 555.8 355.8 555.7 357 555 357.9 554 358.3 553.5 358.2 552.8 357.8 552.4 357.3 552 356.6 552.1 356.2 552.5 355.7 553.1 354.4 553.6 352.5 553.5 350.6 553.5 348.7 552.8 347.3 551.6 348.9 550.9 350.3 549.7 351.2 548.2 351.5 547.7 351.3 547 350.8 546.6 350.3 546.3 349.6 546.5 349.3 547 347.6 550.1 344 551 338.3 549.6 339.6 548.5 340.2 546.8 340 545.1 340 544.7 339.8 544.3 339.4 544.1 339 543.9 338.6 543.9 338.2 544.2 337.8 544.4 337.7 544.9 337.7 545.3 337.8 547.9 336.4 548.4 334.1 549.1 333.8 549.2 333.4 549.3 333.1 549.4 332.5 548 331.2 546.9 329.7 546.5 329.3 546.4 328.9 546.5 328.6 546.8 328.3 547.1 328.2 547.5 328.3 548 328.4 548.4 328.7 548.7 329.2 548.8 330 549 330.6 549.6 331 550.3L331 550.4C329.1 551.2 327.6 552.7 326.9 554.6 326.7 555 326.6 555.5 326.6 556 326.4 555.8 326.2 555.6 326.1 555.3 325.7 554.5 325.4 553.5 325.3 552.6 325.2 552.2 324.9 551.8 324.6 551.7 324.2 551.5 323.8 551.6 323.5 551.9 323.2 552.2 323 552.6 323.2 553 323.4 554.2 323.7 555.3 324.3 556.3 324.9 557.3 325.7 558.1 326.8 558.6 326.9 560 327.4 561.4 328.1 562.7 327.4 563.6 326.5 564.3 325.5 564.9 325.2 565.1 325 565.5 324.9 565.9 324.9 566.3 325.1 566.7 325.5 566.9 325.9 567.1 326.3 567.1 326.6 566.8 327.6 566.1 328.5 565.4 329.3 564.5 329.9 565 330.5 565.4 331.1 565.8 332.1 566.4 332.9 567.1 333.7 568 334.6 569.1 334.6 571.2 334.6 573L334.6 579 330 579C330 571.6 326.4 571.2 326 571 324.5 570.6 320.6 568.5 319.7 564.3 319.6 564.1 319.6 563.8 319.6 563.6 317.9 561.2 318 557.9 319.9 555.6 319.7 554.9 319.6 554.2 319.6 553.5 319.6 550.3 321.9 547.5 325.1 546.9 326.1 544.1 328.7 542.2 331.6 542.3 332.1 542.3 332.7 542.4 333.2 542.5 334.4 541.1 336.1 540.3 338 540.1 339.9 540 341.7 540.6 343.1 541.9 344.9 540.7 347.1 540.4 349.1 541 351.2 541.6 352.8 543.2 353.5 545.2L353.9 545.2C357.7 545.2 360.7 548.2 360.8 552L360.8 552.3C363.1 553.6 364.4 556.1 364.2 558.7 363.4 562.2 360.3 564.9 356.7 564.8ZM378 575.3 371.1 563.4 371.1 563C371.5 552 365.9 541.7 356.4 536.2 346.9 530.6 335.2 530.6 325.7 536.2 316.2 541.7 310.6 552 311 563 311 572.4 315.3 581.3 322.8 587L322.8 612 354.4 612 354.4 600.1 359.3 600.1C362.5 600.1 365.5 598.9 367.7 596.6 369.9 594.4 371.1 591.3 371.1 588.2L371.1 582.2 375.5 582.2C378.1 582 380.4 579 378 575.3Z"/></g></svg>