<svg width="96" height="96" xmlns="http://www.w3.org/2000/svg" xmlns:xlink="http://www.w3.org/1999/xlink" xml:space="preserve" overflow="hidden"><defs><clipPath id="clip0"><rect x="678" y="425" width="96" height="96"/></clipPath></defs><g clip-path="url(#clip0)" transform="translate(-678 -425)"><path d="M764 447 764 496 688 496 688 447 682 447 682 503 717 503C717 504.7 718.3 506 720 506L732 506C733.7 506 735 504.7 735 503L770 503 770 447 764 447Z" fill="#E7E6E6"/><path d="M760 441 692 441 692 492 760 492 760 441ZM698 447 724 447 724 486 698 486 698 447ZM754 486 728 486 728 447 754 447 754 486Z" fill="#E7E6E6"/><path d="M734 457 748 457 748 460 734 460Z" fill="#E7E6E6"/><path d="M734 463 748 463 748 466 734 466Z" fill="#E7E6E6"/><path d="M734 469 743.7 469 743.7 472 734 472Z" fill="#E7E6E6"/></g></svg>