<svg width="96" height="96" xmlns="http://www.w3.org/2000/svg" xmlns:xlink="http://www.w3.org/1999/xlink" xml:space="preserve" overflow="hidden"><defs><clipPath id="clip0"><rect x="409" y="525" width="96" height="96"/></clipPath></defs><g clip-path="url(#clip0)" transform="translate(-409 -525)"><path d="M484.6 556C494.844 572.098 490.098 593.453 474 603.697 457.902 613.942 436.547 609.196 426.303 593.097 416.058 576.999 420.804 555.644 436.903 545.4 448.22 538.198 462.683 538.198 474 545.4L474 543.054C456.609 532.813 434.209 538.609 423.968 556 413.727 573.391 419.523 595.791 436.914 606.032 454.305 616.273 476.705 610.477 486.946 593.086 493.685 581.642 493.685 567.444 486.946 556Z"/><path d="M469.035 555.307C458.415 547.811 443.729 550.345 436.233 560.965 428.737 571.585 431.271 586.271 441.891 593.767 452.512 601.263 467.197 598.729 474.693 588.109 480.436 579.972 480.436 569.102 474.693 560.965L473.257 562.4C479.957 572.224 477.424 585.62 467.6 592.321 457.776 599.021 444.38 596.488 437.679 586.664 430.979 576.839 433.512 563.443 443.336 556.743 450.654 551.752 460.282 551.752 467.6 556.743Z"/><path d="M455.5 566C456.338 566 457.171 566.125 457.973 566.369L459.534 564.809C454.176 562.576 448.023 565.108 445.789 570.466 443.556 575.824 446.089 581.977 451.446 584.211 456.804 586.444 462.958 583.911 465.191 578.554 466.27 575.966 466.27 573.054 465.191 570.466L463.631 572.027C464.997 576.518 462.463 581.266 457.972 582.632 453.48 583.998 448.732 581.464 447.366 576.973 446.001 572.482 448.534 567.734 453.026 566.368 453.828 566.124 454.662 566 455.5 566Z"/><path d="M496.924 542.617C496.769 542.243 496.404 542 496 542L488 542 488 534C488 533.448 487.552 533 487 533 486.735 533 486.48 533.106 486.293 533.293L477.293 542.293C477.105 542.48 477 542.735 477 543L477 551.586 454.793 573.793C454.396 574.177 454.385 574.81 454.768 575.207 455.152 575.604 455.785 575.615 456.182 575.232 456.191 575.224 456.199 575.215 456.207 575.207L478.414 553 487 553C487.265 553 487.52 552.895 487.707 552.707L496.707 543.707C496.993 543.421 497.079 542.991 496.924 542.617ZM479 543.414 485.983 536.431C485.992 536.422 486 536.425 486 536.438L486 542.586 479 549.586ZM486.586 551 480.414 551 487.414 544 493.562 544C493.575 544 493.578 544.008 493.569 544.017Z"/></g></svg>