<svg width="96" height="96" xmlns="http://www.w3.org/2000/svg" xmlns:xlink="http://www.w3.org/1999/xlink" xml:space="preserve" overflow="hidden"><defs><clipPath id="clip0"><rect x="802" y="428" width="96" height="96"/></clipPath></defs><g clip-path="url(#clip0)" transform="translate(-802 -428)"><path d="M844.772 448.951 844.772 448.951C839.401 448.982 835.036 453.293 834.937 458.663L834.937 459.032C834.98 460.21 835.216 461.374 835.637 462.475 836.027 463.466 836.59 464.38 837.299 465.175 838.426 466.534 839.391 468.019 840.176 469.601L849.363 469.601C850.148 468.02 851.113 466.534 852.24 465.175 852.949 464.38 853.512 463.466 853.903 462.475 854.323 461.373 854.56 460.21 854.603 459.032L854.603 458.663C854.501 453.296 850.14 448.987 844.772 448.951Z" fill="#E7E6E6"/><path d="M883.005 477.3 876.105 465.3 876.105 464.8C876.711 448.204 863.748 434.259 847.151 433.653 830.555 433.048 816.611 446.011 816.005 462.607 815.978 463.338 815.978 464.069 816.005 464.8 815.966 474.262 820.326 483.204 827.805 489L827.805 514.3 859.405 514.3 859.405 502.3 864.305 502.3C870.822 502.301 876.106 497.019 876.107 490.502 876.107 490.435 876.106 490.367 876.105 490.3L876.105 484.3 880.505 484.3C883.105 484 885.405 481 883.005 477.3ZM844.772 482.558C843.097 482.56 841.703 481.273 841.572 479.603L847.965 479.603C847.834 481.27 846.444 482.556 844.772 482.558ZM849.178 477.558 840.366 477.558C839.551 477.537 838.908 476.859 838.929 476.044 838.949 475.259 839.581 474.627 840.366 474.607L849.178 474.607C849.993 474.628 850.636 475.306 850.615 476.121 850.595 476.906 849.963 477.538 849.178 477.558ZM857.558 459.084C857.511 460.599 857.21 462.095 856.668 463.51 856.15 464.846 855.397 466.079 854.445 467.15 853.261 468.649 852.256 470.281 851.451 472.013 851.285 472.347 850.943 472.559 850.57 472.559L838.97 472.559C838.597 472.559 838.256 472.347 838.09 472.013 837.283 470.281 836.276 468.649 835.09 467.15 834.138 466.079 833.385 464.846 832.867 463.51 832.326 462.095 832.025 460.599 831.977 459.084L831.977 458.642C832.103 451.654 837.782 446.043 844.771 446L844.771 446C851.756 446.046 857.431 451.655 857.558 458.639Z" fill="#E7E6E6"/></g></svg>