<svg width="96" height="96" xmlns="http://www.w3.org/2000/svg" xmlns:xlink="http://www.w3.org/1999/xlink" xml:space="preserve" overflow="hidden"><defs><clipPath id="clip0"><rect x="163" y="532" width="96" height="96"/></clipPath></defs><g clip-path="url(#clip0)" transform="translate(-163 -532)"><path d="M241.951 563.757C242.408 565.046 242.683 566.392 242.768 567.757L247 567.757 247 591C246.997 594.312 244.312 596.997 241 597L230.179 597 230.07 609.054C230.031 612.343 227.359 614.991 224.07 615L198 615 198 567.757 214.05 567.757C212.756 566.525 211.568 565.187 210.498 563.757L194 563.757 194 607.348 174.48 601.648 188.46 553.748 209.69 559.948 209.918 559.462C210.438 558.364 211.107 557.343 211.905 556.427L185.741 548.79 169.52 604.37 194 611.515 194 619 225.534 619C230.21 618.991 234.677 617.066 237.894 613.672L246.359 604.709C249.345 601.557 251.007 597.378 251 593.036L251 563.757ZM243.451 601.962 234.985 610.926C234.531 611.398 234.043 611.834 233.523 612.232 233.875 611.221 234.059 610.159 234.07 609.089L234.144 601 241 601C242.307 601 243.602 600.743 244.81 600.242 244.406 600.852 243.951 601.428 243.451 601.962Z"/><path d="M222.071 568.8 218.938 575.492C218.325 576.729 218.832 578.229 220.069 578.842 221.306 579.454 222.806 578.948 223.419 577.711 223.435 577.678 223.45 577.645 223.465 577.612L226.6 570.921C230.182 572.23 233.992 572.797 237.8 572.587L237.938 572.579C239.361 569.275 238.983 565.471 236.938 562.512L239.993 552.161 242.542 551.772C243.417 551.639 244.128 550.996 244.349 550.139L244.941 547.848C245.175 546.933 244.805 545.97 244.018 545.448 239.822 542.684 235.248 540.544 230.438 539.093 229.532 538.821 228.552 539.154 228 539.922L226.621 541.844C226.104 542.562 226.065 543.519 226.521 544.277L227.855 546.484 221.913 555.484C218.33 555.807 215.165 557.951 213.537 561.159 215.827 564.264 218.732 566.865 222.071 568.8Z"/></g></svg>