<svg width="96" height="96" xmlns="http://www.w3.org/2000/svg" xmlns:xlink="http://www.w3.org/1999/xlink" xml:space="preserve" overflow="hidden"><defs><clipPath id="clip0"><rect x="544" y="523" width="96" height="96"/></clipPath></defs><g clip-path="url(#clip0)" transform="translate(-544 -523)"><path d="M567 537 617 537 617 605 567 605 567 537ZM561 611 623 611 623 531 561 531 561 611Z"/><path d="M574 543 582 543 582 551 574 551Z"/><path d="M590 545 610 545 610 549 590 549Z"/><path d="M574 559 582 559 582 567 574 567Z"/><path d="M590 561 610 561 610 565 590 565Z"/><path d="M574 575 582 575 582 583 574 583Z"/><path d="M590 577 610 577 610 581 590 581Z"/><path d="M574 591 582 591 582 599 574 599Z"/><path d="M590 593 610 593 610 597 590 597Z"/></g></svg>