<svg width="96" height="96" xmlns="http://www.w3.org/2000/svg" xmlns:xlink="http://www.w3.org/1999/xlink" xml:space="preserve" overflow="hidden"><defs><clipPath id="clip0"><rect x="298" y="418" width="96" height="96"/></clipPath></defs><g clip-path="url(#clip0)" transform="translate(-298 -418)"><path d="M357.7 458.8 348.8 458.8C345 458.8 341.9 461.8 341.9 465.6L341.9 473 337.4 473 337.4 467.1C337.4 465 337.5 462.3 336 460.6 335.1 459.6 334.1 458.8 333 458 332.2 457.5 331.4 456.9 330.8 456.1 330.5 455.7 330.3 455.2 330.1 454.7 331.3 454.2 332.6 454.1 333.8 454.2 334.4 454.2 334.9 453.8 334.9 453.2 335 452.6 334.6 452.1 334.1 451.9 332.6 451.7 331 451.9 329.5 452.4 329.5 452.2 329.5 452 329.4 451.9 329.3 451 329.5 450.1 329.7 449.2 330.5 447.1 332.5 446.2 334.4 445.5 334.7 445.4 335.1 445.3 335.6 445.2L335.9 445.1 336 445.1C336.5 445.2 336.9 445.3 337.3 445.4L337.8 445.5 338.4 445.6C339.4 446.8 339.9 448.3 339.8 449.8 339.7 451.3 339 452.7 337.8 453.7 337.4 454.1 337.3 454.8 337.7 455.3 338.1 455.7 338.7 455.8 339.2 455.4 339.9 454.8 340.5 454.1 340.9 453.3L341 453.3C342.7 453.1 344.4 452.6 345.9 451.8 346.1 451.6 346.3 451.4 346.4 451.1 346.5 450.8 346.4 450.5 346.2 450.3 345.8 449.8 345.2 449.7 344.7 450 343.8 450.5 342.9 450.9 341.8 451 341.9 450.7 342 450.3 342 450 342.1 448.7 341.9 447.4 341.4 446.3 342.2 446.4 343 446.5 343.8 446.5 344.5 446.5 345.2 446.4 345.9 446.3 347.2 447.9 348.9 449 350.9 449.5 353.5 450.8 355.9 452.5 355.9 455.3 355.9 455.7 356.1 456.2 356.4 456.4 356.8 456.6 357.2 456.6 357.6 456.4 358 456.2 358.2 455.7 358.1 455.3 358.1 453.1 357.1 451.1 355.4 449.8 356.8 449.7 358 449 358.9 448 359.3 447.5 359.2 446.8 358.8 446.4 358.3 446 357.6 446.1 357.2 446.5 356.7 447.1 355.4 447.6 353.5 447.5 351.6 447.5 349.7 446.8 348.3 445.6 349.9 444.9 351.3 443.7 352.2 442.2 352.5 441.7 352.3 441 351.8 440.6 351.3 440.3 350.6 440.5 350.3 441 348.6 444.1 345 445 339.3 443.6 340.6 442.5 341.2 440.8 341 439.1 341 438.7 340.8 438.3 340.4 438.1 340 437.9 339.6 437.9 339.2 438.2 338.8 438.4 338.7 438.9 338.7 439.3 338.8 441.9 337.4 442.4 335.1 443.1 334.8 443.2 334.4 443.3 334.1 443.4 333.5 442 332.2 440.9 330.7 440.5 330.3 440.4 329.9 440.5 329.6 440.8 329.3 441.1 329.2 441.5 329.3 442 329.4 442.4 329.7 442.7 330.2 442.8 331 443 331.6 443.6 332 444.3L332 444.4C330.1 445.2 328.6 446.7 327.9 448.6 327.7 449 327.6 449.5 327.6 450 327.4 449.8 327.2 449.6 327.1 449.3 326.7 448.5 326.4 447.5 326.3 446.6 326.2 446.2 325.9 445.8 325.6 445.7 325.2 445.5 324.8 445.6 324.5 445.9 324.2 446.2 324 446.6 324.2 447 324.4 448.2 324.7 449.3 325.3 450.3 325.9 451.3 326.7 452.1 327.8 452.6 327.9 454 328.4 455.4 329.1 456.7 328.4 457.6 327.5 458.3 326.5 458.9 326.2 459.1 326 459.5 325.9 459.9 325.9 460.3 326.1 460.7 326.5 460.9 326.9 461.1 327.3 461.1 327.6 460.8 328.6 460.1 329.5 459.4 330.3 458.5 330.9 459 331.5 459.4 332.1 459.8 333.1 460.4 333.9 461.1 334.7 462 335.6 463.1 335.6 465.2 335.6 467L335.6 473 331 473C331 465.6 327.4 465.2 327 465 325.5 464.6 321.6 462.5 320.7 458.3 320.6 458.1 320.6 457.8 320.6 457.6 318.9 455.2 319 451.9 320.9 449.6 320.7 448.9 320.6 448.2 320.6 447.5 320.6 444.3 322.9 441.5 326.1 440.9 327.1 438.1 329.7 436.2 332.6 436.3 333.1 436.3 333.7 436.4 334.2 436.5 335.4 435.1 337.1 434.3 339 434.1 340.9 434 342.7 434.6 344.1 435.9 345.9 434.7 348.1 434.4 350.1 435 352.2 435.6 353.8 437.2 354.5 439.2L354.9 439.2C358.7 439.2 361.7 442.2 361.8 446L361.8 446.3C364.1 447.6 365.4 450.1 365.2 452.7 364.4 456.2 361.3 458.9 357.7 458.8ZM379 469.3 372.1 457.4 372.1 457C372.5 446 366.9 435.7 357.4 430.2 347.9 424.6 336.2 424.6 326.7 430.2 317.2 435.7 311.6 446 312 457 312 466.4 316.3 475.3 323.8 481L323.8 506 355.4 506 355.4 494.1 360.3 494.1C363.5 494.1 366.5 492.9 368.7 490.6 370.9 488.4 372.1 485.3 372.1 482.2L372.1 476.2 376.5 476.2C379.1 476 381.4 473 379 469.3Z" fill="#E7E6E6"/></g></svg>