<svg width="96" height="96" xmlns="http://www.w3.org/2000/svg" xmlns:xlink="http://www.w3.org/1999/xlink" xml:space="preserve" overflow="hidden"><defs><clipPath id="clip0"><rect x="411" y="419" width="96" height="96"/></clipPath></defs><g clip-path="url(#clip0)" transform="translate(-411 -419)"><path d="M486.6 450C496.844 466.098 492.098 487.453 476 497.697 459.902 507.942 438.547 503.196 428.303 487.097 418.058 470.999 422.804 449.644 438.903 439.4 450.22 432.198 464.683 432.198 476 439.4L476 437.054C458.609 426.813 436.209 432.609 425.968 450 415.727 467.391 421.523 489.791 438.914 500.032 456.305 510.273 478.705 504.477 488.946 487.086 495.685 475.642 495.685 461.444 488.946 450Z" fill="#E7E6E6"/><path d="M471.035 449.307C460.415 441.811 445.729 444.345 438.233 454.965 430.737 465.585 433.271 480.271 443.891 487.767 454.512 495.263 469.197 492.729 476.693 482.109 482.436 473.972 482.436 463.102 476.693 454.965L475.257 456.4C481.957 466.224 479.424 479.62 469.6 486.321 459.776 493.021 446.38 490.488 439.679 480.664 432.979 470.839 435.512 457.443 445.336 450.743 452.654 445.752 462.282 445.752 469.6 450.743Z" fill="#E7E6E6"/><path d="M457.5 460C458.338 460 459.171 460.125 459.973 460.369L461.534 458.809C456.176 456.576 450.023 459.108 447.789 464.466 445.556 469.824 448.089 475.977 453.446 478.211 458.804 480.444 464.958 477.911 467.191 472.554 468.27 469.966 468.27 467.054 467.191 464.466L465.631 466.027C466.997 470.518 464.463 475.267 459.972 476.632 455.48 477.998 450.732 475.464 449.366 470.973 448.001 466.482 450.534 461.733 455.026 460.368 455.828 460.124 456.662 460 457.5 460Z" fill="#E7E6E6"/><path d="M498.924 436.617C498.769 436.243 498.404 436 498 436L490 436 490 428C490 427.448 489.552 427 489 427 488.735 427 488.48 427.106 488.293 427.293L479.293 436.293C479.105 436.48 479 436.735 479 437L479 445.586 456.793 467.793C456.396 468.177 456.385 468.81 456.768 469.207 457.152 469.604 457.785 469.615 458.182 469.232 458.191 469.224 458.199 469.215 458.207 469.207L480.414 447 489 447C489.265 447 489.52 446.895 489.707 446.707L498.707 437.707C498.993 437.421 499.079 436.991 498.924 436.617ZM481 437.414 487.983 430.431C487.992 430.422 488 430.425 488 430.438L488 436.586 481 443.586ZM488.586 445 482.414 445 489.414 438 495.562 438C495.575 438 495.578 438.008 495.569 438.017Z" fill="#E7E6E6"/></g></svg>