<svg width="96" height="96" xmlns="http://www.w3.org/2000/svg" xmlns:xlink="http://www.w3.org/1999/xlink" xml:space="preserve" overflow="hidden"><defs><clipPath id="clip0"><rect x="164" y="417" width="96" height="96"/></clipPath></defs><g clip-path="url(#clip0)" transform="translate(-164 -417)"><path d="M242.951 448.757C243.408 450.046 243.683 451.392 243.768 452.757L248 452.757 248 476C247.997 479.312 245.312 481.997 242 482L231.179 482 231.07 494.054C231.031 497.343 228.359 499.991 225.07 500L199 500 199 452.757 215.05 452.757C213.756 451.525 212.568 450.187 211.498 448.757L195 448.757 195 492.348 175.48 486.648 189.46 438.748 210.69 444.948 210.918 444.462C211.438 443.364 212.107 442.343 212.905 441.427L186.741 433.79 170.52 489.37 195 496.515 195 504 226.534 504C231.21 503.991 235.677 502.066 238.894 498.672L247.359 489.709C250.345 486.557 252.007 482.378 252 478.036L252 448.757ZM244.451 486.962 235.985 495.926C235.531 496.398 235.043 496.834 234.523 497.232 234.875 496.221 235.059 495.159 235.07 494.089L235.144 486 242 486C243.307 486 244.602 485.743 245.81 485.242 245.406 485.852 244.951 486.428 244.451 486.962Z" fill="#E7E6E6"/><path d="M223.071 453.8 219.938 460.492C219.325 461.729 219.832 463.229 221.069 463.842 222.306 464.454 223.806 463.948 224.419 462.711 224.435 462.678 224.45 462.645 224.465 462.612L227.6 455.921C231.182 457.23 234.992 457.797 238.8 457.587L238.938 457.579C240.361 454.275 239.983 450.471 237.938 447.512L240.993 437.161 243.542 436.772C244.417 436.639 245.128 435.996 245.349 435.139L245.941 432.848C246.175 431.933 245.805 430.97 245.018 430.448 240.822 427.684 236.248 425.544 231.438 424.093 230.532 423.821 229.552 424.154 229 424.922L227.621 426.844C227.104 427.562 227.065 428.519 227.521 429.277L228.855 431.484 222.913 440.484C219.33 440.807 216.165 442.951 214.537 446.159 216.827 449.264 219.732 451.865 223.071 453.8Z" fill="#E7E6E6"/></g></svg>