<svg width="96" height="96" xmlns="http://www.w3.org/2000/svg" xmlns:xlink="http://www.w3.org/1999/xlink" xml:space="preserve" overflow="hidden"><defs><clipPath id="clip0"><rect x="544" y="419" width="96" height="96"/></clipPath></defs><g clip-path="url(#clip0)" transform="translate(-544 -419)"><path d="M567 433 617 433 617 501 567 501 567 433ZM561 507 623 507 623 427 561 427 561 507Z" fill="#E7E6E6"/><path d="M574 439 582 439 582 447 574 447Z" fill="#E7E6E6"/><path d="M590 441 610 441 610 445 590 445Z" fill="#E7E6E6"/><path d="M574 455 582 455 582 463 574 463Z" fill="#E7E6E6"/><path d="M590 457 610 457 610 461 590 461Z" fill="#E7E6E6"/><path d="M574 471 582 471 582 479 574 479Z" fill="#E7E6E6"/><path d="M590 473 610 473 610 477 590 477Z" fill="#E7E6E6"/><path d="M574 487 582 487 582 495 574 495Z" fill="#E7E6E6"/><path d="M590 489 610 489 610 493 590 493Z" fill="#E7E6E6"/></g></svg>