<svg width="96" height="96" xmlns="http://www.w3.org/2000/svg" xmlns:xlink="http://www.w3.org/1999/xlink" xml:space="preserve" overflow="hidden"><defs><clipPath id="clip0"><rect x="676" y="531" width="96" height="96"/></clipPath></defs><g clip-path="url(#clip0)" transform="translate(-676 -531)"><path d="M762 553 762 602 686 602 686 553 680 553 680 609 715 609C715 610.7 716.3 612 718 612L730 612C731.7 612 733 610.7 733 609L768 609 768 553 762 553Z"/><path d="M758 547 690 547 690 598 758 598 758 547ZM696 553 722 553 722 592 696 592 696 553ZM752 592 726 592 726 553 752 553 752 592Z"/><path d="M732 563 746 563 746 566 732 566Z"/><path d="M732 569 746 569 746 572 732 572Z"/><path d="M732 575 741.7 575 741.7 578 732 578Z"/></g></svg>